<svg width="17" height="17" viewBox="0 0 17 17" fill="none" xmlns="http://www.w3.org/2000/svg">
<mask id="mask0_65_5209" style="mask-type:alpha" maskUnits="userSpaceOnUse" x="0" y="0" width="17" height="17">
<g clip-path="url(#clip0_65_5209)">
<path d="M1.05566 3.19434C1.05566 2.99542 1.13468 2.80466 1.27533 2.66401C1.41599 2.52335 1.60675 2.44434 1.80566 2.44434H14.3057C14.5046 2.44434 14.6953 2.52335 14.836 2.66401C14.9766 2.80466 15.0557 2.99542 15.0557 3.19434C15.0557 3.39325 14.9766 3.58401 14.836 3.72467C14.6953 3.86532 14.5046 3.94434 14.3057 3.94434H1.80566C1.60675 3.94434 1.41599 3.86532 1.27533 3.72467C1.13468 3.58401 1.05566 3.39325 1.05566 3.19434ZM1.05566 8.19434C1.05566 7.99542 1.13468 7.80466 1.27533 7.66401C1.41599 7.52335 1.60675 7.44434 1.80566 7.44434H14.3057C14.5046 7.44434 14.6953 7.52335 14.836 7.66401C14.9766 7.80466 15.0557 7.99542 15.0557 8.19434C15.0557 8.39325 14.9766 8.58401 14.836 8.72467C14.6953 8.86532 14.5046 8.94434 14.3057 8.94434H1.80566C1.60675 8.94434 1.41599 8.86532 1.27533 8.72467C1.13468 8.58401 1.05566 8.39325 1.05566 8.19434ZM1.80566 12.4443H14.3057C14.5046 12.4443 14.6953 12.5234 14.836 12.664C14.9766 12.8047 15.0557 12.9954 15.0557 13.1943C15.0557 13.3932 14.9766 13.584 14.836 13.7247C14.6953 13.8653 14.5046 13.9443 14.3057 13.9443H1.80566C1.60675 13.9443 1.41599 13.8653 1.27533 13.7247C1.13468 13.584 1.05566 13.3932 1.05566 13.1943C1.05566 12.9954 1.13468 12.8047 1.27533 12.664C1.41599 12.5234 1.60675 12.4443 1.80566 12.4443Z" fill="black"/>
</g>
</mask>
<g mask="url(#mask0_65_5209)">
<rect x="0.0556641" y="0.444336" width="16" height="16" fill="#E4E4E7"/>
</g>
<defs>
<clipPath id="clip0_65_5209">
<rect width="16" height="16" fill="white" transform="translate(0.0556641 0.444336)"/>
</clipPath>
</defs>
</svg>
