<svg width="27" height="26" viewBox="0 0 27 26" fill="none" xmlns="http://www.w3.org/2000/svg">
<path fill-rule="evenodd" clip-rule="evenodd" d="M13.6999 3.12005C8.24338 3.12005 3.81994 7.54348 3.81994 13.0001C3.81994 18.4566 8.24338 22.88 13.6999 22.88C19.1565 22.88 23.58 18.4566 23.58 13.0001C23.58 7.54348 19.1565 3.12005 13.6999 3.12005ZM2.25995 13.0001C2.25995 6.68191 7.3818 1.56006 13.6999 1.56006C20.018 1.56006 25.14 6.68191 25.14 13.0001C25.14 19.3182 20.018 24.44 13.6999 24.44C7.3818 24.44 2.25995 19.3182 2.25995 13.0001Z" fill="#3900D1"/>
<path fill-rule="evenodd" clip-rule="evenodd" d="M24.0999 13.6933H3.29993V12.3066H24.0999V13.6933Z" fill="#3900D1"/>
<path fill-rule="evenodd" clip-rule="evenodd" d="M13.0065 23.4V2.60003H14.3932V23.4H13.0065ZM18.6833 13C18.6833 9.23391 17.329 5.50818 14.6739 3.04473L15.4991 2.15527C18.4487 4.89181 19.8967 8.96609 19.8967 13C19.8967 17.0339 18.4487 21.1082 15.4991 23.8448L14.6739 22.9553C17.329 20.4918 18.6833 16.7661 18.6833 13ZM7.63281 13C7.63281 8.97195 9.03364 4.89978 11.8933 2.16183L12.7324 3.03823C10.1609 5.50029 8.84615 9.22811 8.84615 13C8.84616 16.772 10.1609 20.4998 12.7325 22.9618L11.8933 23.8382C9.03367 21.1002 7.63283 17.0281 7.63281 13Z" fill="#3900D1"/>
<path fill-rule="evenodd" clip-rule="evenodd" d="M13.6999 6.8606C17.4601 6.8606 21.2838 7.5559 23.8757 9.00381C24.1683 9.16721 24.273 9.53679 24.1095 9.82931C23.9462 10.1218 23.5765 10.2265 23.2841 10.0631C20.9443 8.75607 17.3538 8.07393 13.6999 8.07393C10.046 8.07393 6.45556 8.75607 4.11577 10.0631C3.82325 10.2265 3.45367 10.1218 3.29027 9.82931C3.12688 9.53679 3.23154 9.16721 3.52406 9.00381C6.11607 7.5559 9.93975 6.8606 13.6999 6.8606ZM13.6999 18.8067C17.4601 18.8067 21.2838 18.1113 23.8757 16.6634C24.1683 16.5001 24.273 16.1305 24.1095 15.838C23.9462 15.5454 23.5765 15.4408 23.2841 15.6042C20.9443 16.9112 17.3538 17.5934 13.6999 17.5934C10.046 17.5934 6.45556 16.9112 4.11577 15.6042C3.82325 15.4408 3.45367 15.5454 3.29027 15.838C3.12688 16.1305 3.23154 16.5001 3.52406 16.6634C6.11607 18.1113 9.93975 18.8067 13.6999 18.8067Z" fill="#3900D1"/>
</svg>
