<svg width="22" height="18" viewBox="0 0 22 18" fill="none" xmlns="http://www.w3.org/2000/svg">
<path fill-rule="evenodd" clip-rule="evenodd" d="M14.8501 0.882717C16.1122 0.473077 17.5674 0.480397 18.7584 1.09246C21.5064 2.50448 22.6954 6.14382 21.5892 10C21.093 11.7298 20.2204 13.4094 18.3722 15.1048C16.524 16.8 13.9607 17.8 12.7714 17.8C12.3454 17.8 12 17.4642 12 17.05C12 16.6358 12.3529 16.3 12.7714 16.3C14.1299 16.3 15.3438 15.5608 16.7812 14.472C17.8812 13.6386 18.7402 12.5727 19.216 11.6438C20.1256 9.86734 20.1564 7.36348 18.6866 6.69802C17.9808 7.4691 17.059 7.91892 15.9545 7.91892C13.5546 7.91892 12.1402 5.98824 12.201 4.24018C12.2591 2.56948 13.3206 1.37908 14.8501 0.882717ZM2.85006 0.882717C4.11228 0.473077 5.56732 0.480397 6.75846 1.09246C9.5064 2.50448 10.6953 6.14382 9.58924 10C9.09308 11.7298 8.22038 13.4094 6.3722 15.1048C4.52402 16.8 1.96068 17.8 0.77142 17.8C0.34538 17.8 0 17.4642 0 17.05C0 16.6358 0.35288 16.3 0.77142 16.3C2.12994 16.3 3.34378 15.5608 4.78116 14.472C5.8813 13.6386 6.74028 12.5727 7.21594 11.6438C8.12564 9.86734 8.15642 7.36348 6.6866 6.69802C5.98074 7.4691 5.05896 7.91892 3.9545 7.91892C1.5546 7.91892 0.1402 5.98824 0.20102 4.24018C0.25914 2.56948 1.32064 1.37908 2.85006 0.882717Z" fill="#3900D1"/>
</svg>
