<svg width="25" height="22" viewBox="0 0 25 22" fill="none" xmlns="http://www.w3.org/2000/svg">
<path fill-rule="evenodd" clip-rule="evenodd" d="M12.6086 0.63908C12.2948 0.45364 11.905 0.45364 11.5912 0.63908L0.591161 7.13908C0.286701 7.31898 0.0999009 7.64634 0.0999009 8C0.0999009 8.35366 0.286701 8.68102 0.591161 8.86092L11.5912 15.3609C11.905 15.5464 12.2948 15.5464 12.6086 15.3609L23.6086 8.86092C23.9132 8.68102 24.1 8.35366 24.1 8C24.1 7.64634 23.9132 7.31898 23.6086 7.13908L12.6086 0.63908ZM12.0999 13.3385L3.06558 8L12.0999 2.66154L21.1342 8L12.0999 13.3385ZM1.60862 13.6391C1.13314 13.3581 0.519941 13.5158 0.238961 13.9913C-0.0419991 14.4667 0.115681 15.08 0.591161 15.3609L11.5912 21.861C11.905 22.0464 12.2948 22.0464 12.6086 21.861L23.6086 15.3609C24.0842 15.08 24.2418 14.4667 23.9608 13.9913C23.6798 13.5158 23.0666 13.3581 22.5912 13.6391L12.0999 19.8384L1.60862 13.6391Z" fill="#3900D1"/>
</svg>
