<svg width="33" height="32" viewBox="0 0 33 32" fill="none" xmlns="http://www.w3.org/2000/svg">
<path d="M16.2 0C7.36401 0 0.200012 7.164 0.200012 16C0.200012 24.836 7.36401 32 16.2 32C25.036 32 32.2 24.836 32.2 16C32.2 7.164 25.036 0 16.2 0ZM10.1947 7.204C11.3173 7.204 12.0653 7.952 12.0653 8.94933C12.0653 9.94667 11.3173 10.6947 10.0707 10.6947C8.94801 10.696 8.20001 9.94667 8.20001 8.94933C8.20001 7.952 8.94801 7.204 10.1947 7.204ZM12.2 22.6667H8.20001V12H12.2V22.6667ZM25.5333 22.6667H21.768V16.8373C21.768 15.2253 20.764 14.8533 20.388 14.8533C20.012 14.8533 18.756 15.1013 18.756 16.8373C18.756 17.0853 18.756 22.6667 18.756 22.6667H14.8667V12H18.7573V13.488C19.2587 12.62 20.2627 12 22.1453 12C24.028 12 25.5333 13.488 25.5333 16.8373V22.6667Z" fill="#4B5361"/>
</svg>
