<svg width="31" height="30" viewBox="0 0 31 30" fill="none" xmlns="http://www.w3.org/2000/svg">
<path fill-rule="evenodd" clip-rule="evenodd" d="M15.1986 0.281738C6.86649 0.281738 0.109253 7.03806 0.109253 15.373C0.109253 22.0394 4.43282 27.696 10.4294 29.6926C11.1845 29.8305 11.4596 29.3644 11.4596 28.9643C11.4596 28.6058 11.4467 27.6572 11.4392 26.3982C7.24169 27.3098 6.35603 24.3749 6.35603 24.3749C5.66955 22.6315 4.68017 22.1672 4.68017 22.1672C3.31 21.2315 4.78392 21.2501 4.78392 21.2501C6.2986 21.3566 7.0953 22.8055 7.0953 22.8055C8.44137 25.1113 10.6277 24.4453 11.4874 24.0591C11.6245 23.0844 12.0145 22.4193 12.4453 22.0421C9.09449 21.6604 5.57136 20.3663 5.57136 14.5837C5.57136 12.9356 6.15963 11.5895 7.12496 10.5344C6.96933 10.1527 6.45146 8.61851 7.27319 6.54057C7.27319 6.54057 8.53956 6.1348 11.4226 8.08673C12.626 7.7523 13.9174 7.58555 15.2005 7.57906C16.4826 7.58555 17.7731 7.7523 18.9784 8.08673C21.8595 6.1348 23.1239 6.54057 23.1239 6.54057C23.9477 8.61851 23.4298 10.1527 23.2751 10.5344C24.2422 11.5895 24.8259 12.9356 24.8259 14.5837C24.8259 20.3811 21.2972 21.6568 17.9361 22.0301C18.4772 22.4962 18.9598 23.4171 18.9598 24.8252C18.9598 26.8419 18.9413 28.4696 18.9413 28.9643C18.9413 29.3683 19.2137 29.838 19.9789 29.6905C25.971 27.6906 30.2908 22.0385 30.2908 15.373C30.2908 7.03806 23.5335 0.281738 15.1986 0.281738Z" fill="#4B5361"/>
</svg>
